<mxfile host="app.diagrams.net" modified="2023-06-28T13:46:27.775Z" agent="Mozilla/5.0 (Windows NT 10.0; Win64; x64) AppleWebKit/537.36 (KHTML, like Gecko) Chrome/114.0.0.0 Safari/537.36" version="21.5.1" etag="lZ9UZJT8sx_CSI6K14No" type="github">
  <diagram name="第 1 页" id="zuY8Surshat2hru1V3Mr">
    <mxGraphModel>
      <root>
        <mxCell id="0" />
        <mxCell id="1" parent="0" />
      </root>
    </mxGraphModel>
  </diagram>
</mxfile>
